<?xml version="1.0" encoding="utf-8"?>
<!-- Generator: Adobe Illustrator 25.0.1, SVG Export Plug-In . SVG Version: 6.00 Build 0)  -->
<svg version="1.1" id="Calque_1" xmlns="http://www.w3.org/2000/svg" xmlns:xlink="http://www.w3.org/1999/xlink" x="0px" y="0px"
	 viewBox="0 0 283.5 141.7" style="enable-background:new 0 0 283.5 141.7;" xml:space="preserve">
<style type="text/css">
	.st0{opacity:0.81;}
	.st1{enable-background:new    ;}
	.st2{fill:#003645;stroke:#003645;stroke-width:0.851;stroke-linejoin:round;stroke-miterlimit:33.34;}
	.st3{fill:#003645;stroke:#003645;stroke-miterlimit:10;}
	.st4{fill:#003645;}
	.st5{fill:#FF4545;}
	.st6{fill:#FFFFFF;}
	.st7{opacity:0.83;fill:#76413D;}
	.st8{fill:#B7043C;}
</style>
<g class="st0">
	<g>
		<g>
			<g class="st1">
				<path class="st2" d="M41.6,24.6c0,0.5-0.4,0.8-0.7,1.1c-0.9,11.8-1.5,25.3,2.8,36c8.5,21.1,16.1,13.8,23.8,8.4
					c4.7-3.4,11.9-5.5,17.5-3c0.4,0.2,0,0.9-0.4,0.8c-3.9-0.5-7.9-0.6-11.7,0.9c-6,2.5-9.7,8.9-17.1,9.1
					C47,78.2,40.4,67.3,37.9,59.4c-2.7-9-2.7-18.9-2.1-28.4c0.4-6.1,0.4-6.6,1-7.2c0.5-0.7,1.4-1.1,2.2-1.2
					C40.4,22.4,41.6,23,41.6,24.6z"/>
				<path class="st2" d="M75,50.9c-0.6,1.2-2.4,1.1-3.8,0.4c-3.1-1.7-8.9,3.6-9.9,6.5c-0.4,1.3-0.7,3,0.6,3.7c1.8,0.9,6.9-4,8.8-6.8
					c0-0.2-0.2-0.3-0.2-0.5c-0.3-1.3,1.8-1.7,2.4-0.7c0.8,1.3,2.1,2.2,3.7,2.6c1.7,0.6,3.7,0,5.4-0.8c4.1-1.8,6.4-5.5,8.9-8.6
					c0.4-0.4,1.1,0,0.7,0.4c-2.9,3.5-5.5,8-10.2,10c-3.6,1.5-8.5,1.1-10.4-1.8c-1.5,2.3-6.3,7.8-9.3,7.7c-2.5-0.1-3.7-3.2-3.6-5.6
					c0.3-4.4,4.1-8.7,8.7-10.1c0.6-0.2,1.2-0.3,1.7-0.4C73,46.5,76.1,48.8,75,50.9z"/>
				<path class="st2" d="M134,21.1c-0.8,1.2-2.9,1.2-3.2-0.2c0-0.2-0.6-1.9-0.7-2c-1.7-4.2-9-5.3-15.1,1.3c-9.4,9.9-5.6,30.4,2,38.2
					c5.5,5.6,13.4,6.2,20.3-0.1c5.2-4.7,9.4-14,10.7-20.2c0.2-0.8,1.7-0.6,1.5,0.1c-1.3,4.5-3.3,9.6-5.8,13.7
					c-4.6,7.3-11.5,13.5-20.4,11.2C107.5,59.2,98.7,24,115.9,14c2.2-1.3,4.4-2.1,6.3-2.4C130.9,10.2,136.7,16.9,134,21.1z"/>
				<path class="st2" d="M161.7,37.2c-0.6,1.2-2.4,1.1-3.8,0.4c-3.1-1.7-8.9,3.6-9.9,6.5c-0.4,1.3-0.7,3,0.6,3.7
					c1.8,0.9,6.9-4,8.8-6.8c0-0.2-0.2-0.3-0.2-0.5c-0.3-1.3,1.8-1.7,2.4-0.7c0.8,1.3,2.1,2.2,3.7,2.6c1.7,0.6,3.7,0,5.4-0.8
					c4.1-1.8,6.4-5.5,8.9-8.6c0.4-0.4,1.1,0,0.7,0.4c-2.9,3.5-5.5,8-10.2,10c-3.6,1.5-8.5,1.1-10.4-1.8c-1.5,2.3-6.3,7.8-9.3,7.7
					c-2.5-0.1-3.7-3.2-3.6-5.6c0.3-4.4,4.1-8.7,8.7-10.1c0.6-0.2,1.2-0.3,1.7-0.4C159.7,32.8,162.8,35.1,161.7,37.2z"/>
				<path class="st2" d="M186.2,25.7c1.8,0.4,2.6,4.4,2.7,6c1.5,0.1,3.9-0.5,5.2-1.3c0.6-0.3,1.3,0.4,0.7,0.7
					c-1.4,0.8-4.1,1.7-5.7,1.6c0.1,2.6-0.2,6.8-2,9.1c-3.8,5.1-11.3-2-10.6-9c0.8-5.7,5-3.2,3.7-1.9c0,0.7-0.1,0.9,0,1.9
					c-0.2,14.3,9.6,11.3,8.2-0.2c-5.2-0.9-5.2-6.6-2.9-7C185.7,25.6,186,25.6,186.2,25.7z M185.6,29.5c0.5,1,1.5,1.7,2.7,2
					c-0.7-4-1.8-5.3-2.6-5.1C185,26.5,184.7,28,185.6,29.5z"/>
			</g>
		</g>
	</g>
	<g>
		<g>
			<g class="st1">
				<path class="st3" d="M41.6,24.6c0,0.5-0.4,0.8-0.7,1.1c-0.9,11.8-1.5,25.3,2.8,36c8.5,21.1,16.1,13.8,23.8,8.4
					c4.7-3.4,11.9-5.5,17.5-3c0.4,0.2,0,0.9-0.4,0.8c-3.9-0.5-7.9-0.6-11.7,0.9c-6,2.5-9.7,8.9-17.1,9.1
					C47,78.2,40.4,67.3,37.9,59.4c-2.7-9-2.7-18.9-2.1-28.4c0.4-6.1,0.4-6.6,1-7.2c0.5-0.7,1.4-1.1,2.2-1.2
					C40.4,22.4,41.6,23,41.6,24.6z"/>
				<path class="st3" d="M75,50.9c-0.6,1.2-2.4,1.1-3.8,0.4c-3.1-1.7-8.9,3.6-9.9,6.5c-0.4,1.3-0.7,3,0.6,3.7c1.8,0.9,6.9-4,8.8-6.8
					c0-0.2-0.2-0.3-0.2-0.5c-0.3-1.3,1.8-1.7,2.4-0.7c0.8,1.3,2.1,2.2,3.7,2.6c1.7,0.6,3.7,0,5.4-0.8c4.1-1.8,6.4-5.5,8.9-8.6
					c0.4-0.4,1.1,0,0.7,0.4c-2.9,3.5-5.5,8-10.2,10c-3.6,1.5-8.5,1.1-10.4-1.8c-1.5,2.3-6.3,7.8-9.3,7.7c-2.5-0.1-3.7-3.2-3.6-5.6
					c0.3-4.4,4.1-8.7,8.7-10.1c0.6-0.2,1.2-0.3,1.7-0.4C73,46.5,76.1,48.8,75,50.9z"/>
				<path class="st3" d="M134,21.1c-0.8,1.2-2.9,1.2-3.2-0.2c0-0.2-0.6-1.9-0.7-2c-1.7-4.2-9-5.3-15.1,1.3c-9.4,9.9-5.6,30.4,2,38.2
					c5.5,5.6,13.4,6.2,20.3-0.1c5.2-4.7,9.4-14,10.7-20.2c0.2-0.8,1.7-0.6,1.5,0.1c-1.3,4.5-3.3,9.6-5.8,13.7
					c-4.6,7.3-11.5,13.5-20.4,11.2C107.5,59.2,98.7,24,115.9,14c2.2-1.3,4.4-2.1,6.3-2.4C130.9,10.2,136.7,16.9,134,21.1z"/>
				<path class="st3" d="M161.7,37.2c-0.6,1.2-2.4,1.1-3.8,0.4c-3.1-1.7-8.9,3.6-9.9,6.5c-0.4,1.3-0.7,3,0.6,3.7
					c1.8,0.9,6.9-4,8.8-6.8c0-0.2-0.2-0.3-0.2-0.5c-0.3-1.3,1.8-1.7,2.4-0.7c0.8,1.3,2.1,2.2,3.7,2.6c1.7,0.6,3.7,0,5.4-0.8
					c4.1-1.8,6.4-5.5,8.9-8.6c0.4-0.4,1.1,0,0.7,0.4c-2.9,3.5-5.5,8-10.2,10c-3.6,1.5-8.5,1.1-10.4-1.8c-1.5,2.3-6.3,7.8-9.3,7.7
					c-2.5-0.1-3.7-3.2-3.6-5.6c0.3-4.4,4.1-8.7,8.7-10.1c0.6-0.2,1.2-0.3,1.7-0.4C159.7,32.8,162.8,35.1,161.7,37.2z"/>
				<path class="st3" d="M186.2,25.7c1.8,0.4,2.6,4.4,2.7,6c1.5,0.1,3.9-0.5,5.2-1.3c0.6-0.3,1.3,0.4,0.7,0.7
					c-1.4,0.8-4.1,1.7-5.7,1.6c0.1,2.6-0.2,6.8-2,9.1c-3.8,5.1-11.3-2-10.6-9c0.8-5.7,5-3.2,3.7-1.9c0,0.7-0.1,0.9,0,1.9
					c-0.2,14.3,9.6,11.3,8.2-0.2c-5.2-0.9-5.2-6.6-2.9-7C185.7,25.6,186,25.6,186.2,25.7z M185.6,29.5c0.5,1,1.5,1.7,2.7,2
					c-0.7-4-1.8-5.3-2.6-5.1C185,26.5,184.7,28,185.6,29.5z"/>
			</g>
		</g>
	</g>
	<g>
		<g>
			<g class="st1">
				<path class="st4" d="M200.2,26.3c4.1,1.1,1.1,7.2-3.5,8.8c-0.9,7.1,2.8,10,8.4,4.9c3.7-3.3,5.5-7.6,7.4-12
					c0.3-0.4,1.1-0.2,0.8,0.3c-1.7,4-3.4,8.2-6.6,11.7c-3.2,3.3-7.1,5.3-10.9,2.8c-7.3-4.6-2.6-15.8,2.8-16.6
					C199.1,26.2,199.6,26.2,200.2,26.3z M197,34.1c1.7-0.8,3.3-2.4,3.2-4c0-0.1-0.2-0.3-0.1-0.5C198.4,30.7,197.4,32.3,197,34.1z"/>
			</g>
		</g>
	</g>
</g>
<g class="st0">
	<path class="st4" d="M157.2,74.3c-1.2,0-2.1-0.3-2.7-0.9s-0.9-1.4-0.9-2.4c0-0.7,0.2-1.3,0.6-1.9c0.4-0.5,1-0.9,1.7-1.2
		c0.7-0.3,1.6-0.4,2.7-0.4h2v-1.1c0-0.7-0.2-1.2-0.6-1.6s-1-0.6-1.7-0.6c-0.5,0-0.9,0.1-1.2,0.2s-0.7,0.3-0.9,0.5l-0.2,1.6h-1.6
		v-2.6c0.5-0.4,1.1-0.7,1.8-0.9c0.7-0.2,1.4-0.3,2.2-0.3c1.4,0,2.4,0.3,3.2,1s1.2,1.6,1.2,2.8v5.4c0,0.1,0,0.3,0,0.4s0,0.3,0,0.4
		l1.1,0.1v1.3H161c-0.1-0.3-0.1-0.6-0.1-0.8c0-0.2-0.1-0.5-0.1-0.7c-0.4,0.5-0.9,0.9-1.5,1.3C158.5,74.1,157.9,74.3,157.2,74.3z
		 M157.5,72.6c0.7,0,1.3-0.2,1.9-0.5c0.6-0.3,1-0.7,1.2-1.2v-2h-2.1c-0.9,0-1.6,0.2-2.1,0.7c-0.5,0.4-0.7,1-0.7,1.5s0.2,0.9,0.5,1.1
		C156.4,72.5,156.9,72.6,157.5,72.6z"/>
	<path class="st4" d="M170.3,74.3c-1.2,0-2.2-0.4-2.9-1.2c-0.7-0.8-1-2-1-3.7v-5l-1.3-0.3v-1.3h1.3h2v6.6c0,1.2,0.2,2,0.5,2.5
		s0.9,0.7,1.7,0.7c0.7,0,1.3-0.1,1.8-0.4s0.8-0.7,1.1-1.3v-6.5l-1.5-0.3v-1.3h1.5h2v9.6l1.3,0.3V74h-3.1l-0.1-1.7
		c-0.4,0.6-0.8,1.1-1.4,1.4C171.7,74.1,171,74.3,170.3,74.3z"/>
	<path class="st4" d="M177.9,74.1v-1.3l1.2-0.2l3.4-4.1l-3.3-4l-1.1-0.2V63h4.4v1.3l-1.1,0.1l2.3,2.9l2.2-2.9l-1.2-0.1V63h4.3v1.3
		l-1.1,0.2l-3,4l3.5,4.2l1.2,0.2v1.3h-4.8v-1.3l1.4-0.1l-2.5-3l-2.4,3l1.2,0.1v1.3L177.9,74.1L177.9,74.1z"/>
</g>
<g>
	<g>
		<path class="st5" d="M262.6,65.1c1.1,0.3,2.3-0.3,2.6-1.3c0.3-0.9-0.3-2-1.1-2.1c-1.2-0.2-2.3,0.4-2.6,1.4
			C261.2,64,261.7,64.8,262.6,65.1 M261.4,66.3c-1.8-0.5-2.5-2.5-1.5-4.1c0.6-1,1.3-1.7,2.4-2c1.2-0.4,2.3,0,3.3,0.8
			c0.5,0.4,1,1.1,1.2,1.7c0.4,1-0.2,1.8-0.9,2.5C264.9,66.3,262.7,66.8,261.4,66.3"/>
	</g>
	<g>
		<path class="st5" d="M248.5,56.6l-0.1,0.1c-0.2,0-0.4-0.1-0.6-0.1c-0.6,0-1.3,0.3-1.3,0.8s0.4,1.1,1,1c0.4,0,0.8-0.1,1.1-0.3
			c0.2-0.2,0.4-0.6,0.4-0.8C249.1,57.1,248.7,56.9,248.5,56.6 M248.7,54.7c2,0.5,1.9,1.6,1.6,3.1c-0.3,1.6-1.7,2.4-3.2,2
			c-1.3-0.3-2.4-2-2.2-3.1C245.2,55.2,247.1,54.2,248.7,54.7"/>
	</g>
	<g>
		<path class="st5" d="M252.3,63c-1.3-0.4-1.9-1.6-1.5-2.9c0.4-1.2,1.4-1.6,2.7-1.2c1.3,0.4,1.8,1.5,1.4,2.8
			C254.6,62.9,253.5,63.4,252.3,63"/>
	</g>
	<g>
		<path class="st5" d="M238.3,66c-1.2-0.4-1.7-2.2-0.9-3.1c0.8-1,2.2-1,3.2-0.7c0.6,0.2,0.8,0.6,0.7,1.2c-0.2,1.7-0.8,2.3-1.9,2.5
			C239,66,238.6,66,238.3,66"/>
	</g>
	<g>
		<path class="st5" d="M256.8,63.7c1.2,0.4,1.7,1.3,1.3,2.5c-0.3,1-1.5,1.5-2.7,1.2c-1.2-0.4-1.2-1.3-1-2.5
			C254.6,63.8,255.7,63.3,256.8,63.7"/>
	</g>
	<g>
		<path class="st5" d="M243.7,58.9c1,0.3,1.4,0.7,1.4,1.4c-0.1,1.3-0.6,1.7-1.7,1.9c-0.8,0.2-1.5,0.1-2.2-0.5
			c-0.6-0.6-0.7-1.5-0.1-2.1C241.9,58.9,242.8,58.6,243.7,58.9"/>
	</g>
	<g>
		<path class="st5" d="M259,57.2c1,0.3,1.6,1.3,1.4,2.2s-1.3,1.3-2.4,1c-1.2-0.3-1.6-0.9-1.3-2C257,57.3,257.9,56.8,259,57.2"/>
	</g>
	<g>
		<path class="st5" d="M248.8,62c1.1,0.3,1.8,1.2,1.5,2c-0.3,0.9-1.2,1.6-2.2,1.3c-0.9-0.3-1.5-1.3-1.2-2.3
			C247.1,62.2,247.7,61.5,248.8,62"/>
	</g>
</g>
<g>
	<path class="st6" d="M254.1,45.6c0.5-0.5,1-1,1.6-1.3c2.9-1.8,4.8-3.2,8-4.2c2.5-0.8,5.1-1.5,7.7-2.1c1.4-0.3,2.8-0.2,4.2-0.3
		c0.2,0,0.4,0.2,0.6,0.3c-0.1,0.2-0.2,0.4-0.4,0.5c-1.9,1.4-3.9,2.5-6,3.5c-2.9,1.3-4.5,2.3-7.6,2.9c-2.3,0.5-4.5,1-6.8,1.4
		c-0.3,0-0.5,0.1-0.8,0.1C254.3,46.3,254.1,46.1,254.1,45.6"/>
</g>
<g>
	<path class="st6" d="M245,26.3c0,0.3,0.1,0.5,0.1,0.7c-0.1,2.7-1.1,5.1-2.2,7.5c-1.1,2.4-2.4,4.7-4,6.9c-1.2,1.6-2.4,3.1-4,4.3
		c-0.1,0.1-0.3,0.1-0.5,0.2c0-0.2-0.1-0.4,0-0.6c0.4-1,0.8-2,1.2-3c1.1-2.5,2.3-5.1,3.6-7.6c1-1.9,2.3-3.6,3.4-5.3
		c0.6-0.9,1.3-1.7,2-2.5C244.6,26.5,244.7,26.5,245,26.3"/>
</g>
<g>
	<path class="st6" d="M238.4,79.2c-0.3,0-0.5,0-0.7-0.1c-1.8-0.5-3.6-1-5.4-1.6c-1.9-0.7-3.8-1.4-5.6-2.4c-1.8-0.9-3.5-2.1-4.9-3.6
		c-0.2-0.2-0.2-0.4-0.4-0.6c0.2-0.1,0.4-0.3,0.6-0.3c0.8,0,1.7-0.2,2.5,0c1.9,0.3,3.7,0.9,5.4,1.9c1.5,0.9,3,1.7,4.4,2.7
		s2.7,2.1,3.8,3.5C238.3,78.8,238.3,78.9,238.4,79.2"/>
</g>
<g>
	<path class="st6" d="M232.6,39c0.6-1.7,1.6-3.9,3.2-5.8c1.1-1.4,2.2-2.8,3.4-4.1c0.8-0.9,1.8-1.6,2.7-2.4c0.1-0.1,0.3-0.1,0.3-0.1
		c0.1,0.1,0.1,0.2,0.1,0.3c0,0.2-0.1,0.3-0.2,0.5c-0.3,0.5-0.6,1.1-0.9,1.6c-1.1,1.9-2.2,3.8-3.3,5.7c-1,1.7-2,3.4-2.9,5.1
		c-0.6,1.1-1,2.2-1.5,3.4c-0.3,0.6-0.4,1.3-0.7,1.9c-0.1,0.2-0.2,0.3-0.4,0.4c-0.1-0.1-0.3-0.3-0.4-0.4
		C231.9,43.3,231.9,41.4,232.6,39"/>
</g>
<g>
	<path class="st6" d="M272.7,42.6c-0.8,0.7-1.6,1.3-2.4,2c-2.3,1.8-4.9,3-7.7,3.8c-1.6,0.4-1.9,0.8-3.5,0.7
		c-1.1-0.1-2.3-0.2-3.4-0.3c-0.2,0-0.4,0-0.6-0.1c-0.1-0.1-0.3-0.2-0.3-0.3c0-0.2,0.2-0.4,0.3-0.4c1.3-0.4,2.5-0.8,3.8-1.2
		c2.3-0.6,3.4-1.2,5.7-1.8c2.2-0.6,4.4-1.4,6.6-2.1c0.4-0.1,0.8-0.3,1.2-0.4c0.1,0,0.2,0,0.4,0C272.7,42.5,272.7,42.6,272.7,42.6"/>
</g>
<g>
	<path class="st6" d="M220.4,68.4c0.3-0.2,0.5-0.3,0.7-0.4c2.4-0.9,4.8-0.5,7.1,0.1c1.9,0.5,3.6,1.1,5.3,2.1
		c0.9,0.5,1.7,1.2,2.4,1.9c1.1,1,2.1,2.1,3.1,3.1c0.3,0.3,0.4,0.7,0,1c-0.1,0.1-0.4,0.1-0.5,0c-2.6-1.9-5.4-3.6-8.4-4.9
		c-2.9-1.3-6-2-9.1-2.7c-0.1,0-0.2,0-0.3-0.1C220.6,68.6,220.6,68.5,220.4,68.4"/>
</g>
<g>
	<path class="st6" d="M220,72.2c0.2,0.1,0.4,0.2,0.6,0.3c1.8,1.2,3.6,2.4,5.4,3.5c0.7,0.4,1.4,0.8,2.2,1.1c2.8,1.1,5.7,2.2,8.5,3.3
		c0.2,0.1,0.3,0.2,0.5,0.3c-0.1,0.1-0.3,0.3-0.4,0.3c-1.5,0.5-3.1,0.6-4.6,0.3c-2-0.4-3.9-1-5.6-2.1c-1.2-0.7-2.2-1.6-3.3-2.4
		c-1.4-1.1-2.4-2.4-3.2-3.9c-0.1-0.2-0.1-0.4-0.2-0.7C219.8,72.3,219.9,72.3,220,72.2"/>
</g>
<g>
	<path class="st6" d="M254.7,43c0.2-0.3,0.4-0.7,0.7-1c1.6-1.8,3.4-3.3,5.7-4.2c2.2-0.8,3.2-1.3,5.5-1.4c1.1,0,2.2-0.1,3.3-0.2
		c0.2,0,0.5,0.1,0.7,0.3c-5.8,2-10.4,3.7-15.8,6.8C254.8,43.1,254.8,43,254.7,43"/>
</g>
<g>
	<path class="st6" d="M245.8,32.6c0,0.3,0,0.5-0.1,0.8c-0.6,2.1-1.1,4.2-2.2,6.2c-1,1.9-2.2,3.6-3.8,5c-1.1,1-2.3,1.9-3.5,2.9
		c-0.1,0.1-0.3,0.1-0.4,0.2c0-0.2,0-0.4,0-0.5c0.2-0.4,0.5-0.7,0.8-1.1c1.2-1.9,2.5-3.8,3.7-5.6c1.3-1.9,2.5-3.8,3.8-5.7
		c0.4-0.6,0.8-1.1,1.1-1.7c0.1-0.2,0.2-0.3,0.4-0.4C245.7,32.5,245.8,32.5,245.8,32.6"/>
</g>
<g>
	<path class="st6" d="M238.1,58.5c-0.2,0.7-1.4,1.4-2.2,1.1c-0.6-0.2-1-1-0.9-1.5c0.2-0.8,1.4-1.5,2.1-1.3
		C237.8,57,238.3,58,238.1,58.5"/>
</g>
<g>
	<path class="st6" d="M262.6,65.1c-0.9-0.3-1.4-1.1-1.1-2c0.3-1,1.4-1.6,2.6-1.4c0.9,0.2,1.4,1.2,1.1,2.1
		C265,64.8,263.7,65.4,262.6,65.1"/>
</g>
<g>
	<path class="st6" d="M248.5,56.6c0.2,0.2,0.6,0.4,0.6,0.7s-0.2,0.7-0.4,0.8c-0.3,0.2-0.8,0.3-1.1,0.3c-0.5,0-1-0.5-1-1
		s0.7-0.8,1.3-0.8C248,56.6,248.2,56.7,248.5,56.6C248.4,56.7,248.5,56.7,248.5,56.6"/>
</g>
<path class="st7" d="M279.4,36.1c-0.4-0.1-0.8-0.3-1.3-0.3c-2-0.3-3.3-0.7-5.4-0.9c-1.3-0.1-2.7-0.3-4-0.2c-2.2,0.2-3.1,0.4-5.3,0.8
	c-1,0.2-1.9,0.7-2.8,1c-1.3,0.6-2.5,1.4-3.8,2.1c-2.4,1.5-4.2,3.5-5.7,5.8c-0.7,1-1.5,2-2.7,2.5s-2.5,0.8-3.8,1.2
	c-2,0.6-3.9,1.1-5.9,1.6c-1,0.3-2,0.4-3.1,0.6c-0.1,0-0.3-0.1-0.3-0.2c0,0,0-0.2,0.1-0.3c0.4-0.4,0.8-0.7,1.2-1c1.2-1,2.5-2,3.6-3.1
	c1.8-1.8,3.4-3.9,4.5-6.3c1-2.1,1.6-4.4,2.3-6.6c0.5-2,0.7-3.9,0.6-5.9c0-1.3-0.2-2.6-0.8-3.7c-0.6-1.2-0.6-1.3-1.7-0.5
	c-1.6,1.1-3.1,2.3-4.5,3.6c-1.4,1.2-2.7,2.5-3.9,3.9c-1,1.1-1.9,2.3-2.8,3.5c-0.7,1-1.2,2.1-1.9,3.2c-1,1.5-1.4,3.3-1.5,5
	c-0.2,2.3,0,4.6-0.1,6.9c-0.1,2.6-1.6,4.8-4,5.8c-1.8,0.8-3.7,1.7-5.5,2.6c-1.5,0.8-3,1.8-4.4,2.7c-1,0.7-2,1.5-3.1,2.2
	c-1.2,0.8-2.4,1.6-3.6,2.4c-0.2,0.1-0.4,0-0.6,0c0-0.2,0-0.4,0.1-0.6c0.6-1.1,1.3-2.2,1.9-3.3c0.9-1.7,1.8-3.4,1.7-5.4
	c-0.1-1.2-0.5-2.2-1.6-2.8c-1.5-0.9-2.8,0-3.4,1.3c-0.5,1-0.4,1.5,0.5,2.2c0.4,0.4,1,0.5,1.5,0.8c0.9,0.4,1.1,0.8,0.8,1.7
	c-0.1,0.3-0.2,0.7-0.4,1c-0.5,1-1,1.9-1.5,2.8c-0.3,0.6-0.6,1.2-1,1.7c-0.8,1.1-1.6,2.2-2.5,3.3c-0.8,1-1.6,1.9-2.4,2.9
	c-1.1,1.2-2.2,2.4-3.2,3.6c-0.8,0.9-1.5,2-2.3,3c-0.3,0.4-0.6,0.8-0.9,1.3c0.3,0.4,0.6,0.7,0.9,1.1c0.8-1.1,1.5-2.1,2.4-3.2
	c1.7-2,3.8-3.5,6.2-4.5c1.4-0.5,2.9-1,4.4-1.3c1-0.2,2-0.3,3.1-0.4c1.3-0.1,2.1,0.7,2.7,1.7c1.3,2.1,2.6,4.1,4.3,6
	c0.9,1,1.8,1.9,2.9,2.7c1.3,0.9,2.7,1.6,4.2,2.2c2.8,1,5.6,1.3,8.5,1.3c1.7,0,3.3-0.1,5-0.3c0.8-0.1,1.6-0.2,2.5-0.4
	c0.7-0.2,1.1-0.8,0.8-1.5c-0.3-0.9-0.8-1.7-1.3-2.5c-1.3-2.1-2.7-4-4.4-5.7c-1.4-1.4-2.9-2.6-4.5-3.6c-2.2-1.3-4.5-2.4-7-2.7
	c-0.6-0.1-1.1-0.2-1.7-0.3c-2.6-0.4-5.1-0.3-7.4,0.9c-1.3,0.7-2.8,0.8-4.3,1.1c-1.1,0.2-2.1,0.4-3.2,0.6c-1.1,0.2-2.2,0.4-3.3,0.6
	c-0.2,0-0.5-0.1-0.7-0.2c0.1-0.2,0.1-0.5,0.3-0.7c0.4-0.4,0.9-0.8,1.4-1.2c1.3-1,2.5-2.1,3.9-3s2.8-1.6,4.3-2.3c1.3-0.6,2.7-1,4-1.3
	s2.6-0.6,3.9-0.7c1.1-0.1,2.2-0.1,3.3-0.1c2.1-0.1,4.2,0.2,6.3,0.6c1.2,0.2,2.3,0.4,3.5,0.1c1.5-0.3,2.4-1.6,1.9-3
	c-0.6-1.6-2.2-2.5-3.9-2c-1.3,0.4-2.1,1.3-2.6,2.5c-0.1,0.2-0.4,0.4-0.6,0.4c-1.2,0.1-2.4,0-3.5,0.1c-1.4,0.1-2.8,0.3-4.3,0.4
	c-0.8,0-1.6,0-2.4,0c-0.2,0-0.3-0.2-0.5-0.3c0.1-0.2,0.2-0.3,0.3-0.4c1.7-1,3.4-2,5.1-2.9c1.6-0.8,3.2-1.5,4.9-2.1
	c2.4-0.9,4.9-1.7,7.4-2.5c2.1-0.6,4.2-1,6.3-1.5c1.2-0.3,2.3-0.4,3.6-0.1c1.8,0.5,3.7,0.8,5.5,1c1.6,0.2,3.3,0.2,4.9,0.3
	c1.5,0.1,1.6-0.1,3-0.6c1.6-0.6,3.1-1.3,4.5-2.1c2.1-1.2,4.2-2.4,6.2-3.8c1.8-1.3,2.8-2.6,4.5-4.2c0.9-0.8,1.5-1.8,1.8-3
	C279.8,36.5,279.8,36.2,279.4,36.1z M237.7,79.1c-1.8-0.5-3.6-1-5.4-1.6c-1.9-0.7-3.8-1.4-5.6-2.4c-1.8-0.9-3.5-2.1-4.9-3.6
	c-0.2-0.2-0.2-0.4-0.4-0.6c0.2-0.1,0.4-0.3,0.6-0.3c0.8,0,1.7-0.2,2.5,0c1.9,0.3,3.7,0.9,5.4,1.9c1.5,0.9,3,1.7,4.4,2.7
	s2.7,2.1,3.8,3.5c0.1,0.1,0.1,0.2,0.3,0.5C238.1,79.2,237.9,79.2,237.7,79.1z M221.1,68c2.4-0.9,4.8-0.5,7.1,0.1
	c1.9,0.5,3.7,1.1,5.3,2.1c0.9,0.5,1.7,1.2,2.5,1.9c1.1,1,2.1,2.1,3.1,3.1c0.3,0.4,0.4,0.7,0,1c-0.1,0.1-0.4,0.1-0.5,0
	c-2.6-1.9-5.4-3.6-8.4-4.9s-6-2-9.1-2.7c-0.1,0-0.2,0-0.3-0.1c0,0-0.1,0-0.2-0.2C220.7,68.2,220.9,68.1,221.1,68z M220,72.2
	c0.2,0.1,0.4,0.2,0.6,0.3c1.8,1.2,3.6,2.4,5.4,3.5c0.7,0.4,1.4,0.8,2.2,1.1c2.8,1.1,5.7,2.2,8.5,3.3c0.2,0.1,0.3,0.2,0.5,0.4
	c-0.1,0.1-0.3,0.3-0.4,0.3c-1.5,0.5-3.1,0.6-4.6,0.3c-2-0.4-3.9-1-5.6-2.1c-1.2-0.7-2.2-1.6-3.3-2.5c-1.4-1-2.3-2.4-3.2-3.9
	c-0.1-0.2-0.1-0.4-0.2-0.7C219.8,72.3,219.9,72.3,220,72.2z M235,58.2c0.2-0.7,1.4-1.5,2.1-1.3c0.6,0.2,1.2,1.1,1,1.7
	c-0.2,0.7-1.5,1.4-2.2,1.1C235.3,59.5,234.9,58.7,235,58.2z M245.7,32.5c0.1,0,0.1,0,0.2,0.1c0,0.3,0,0.5-0.1,0.7
	c-0.5,2.1-1.1,4.2-2.2,6.1c-1,1.9-2.2,3.6-3.8,5c-1.1,1-2.3,1.9-3.5,2.9c-0.1,0.1-0.3,0.1-0.5,0.2c0-0.2,0-0.4,0-0.5
	c0.2-0.4,0.5-0.7,0.8-1.1c1.2-1.9,2.5-3.8,3.7-5.6c1.3-1.9,2.5-3.8,3.8-5.7c0.4-0.6,0.8-1.1,1.1-1.7
	C245.4,32.8,245.5,32.6,245.7,32.5z M232.9,45.2c-0.1,0.1-0.2,0.3-0.4,0.4c-0.1-0.1-0.3-0.3-0.4-0.4c-0.3-1.9-0.3-3.7,0.4-6.1
	c0.6-1.7,1.6-3.9,3.2-5.8c1.1-1.4,2.2-2.8,3.4-4.1c0.8-0.9,1.8-1.6,2.7-2.4c0.1-0.1,0.3-0.1,0.3-0.1c0.1,0.1,0.1,0.2,0.1,0.3
	c0,0.2-0.1,0.3-0.2,0.5c-0.3,0.5-0.6,1.1-0.9,1.6c-1.1,1.9-2.2,3.8-3.3,5.7c-1,1.7-2,3.4-2.9,5.1c-0.6,1.1-1,2.2-1.5,3.4
	C233.4,43.9,233.2,44.6,232.9,45.2z M234.3,45.7c0-0.2-0.1-0.4,0-0.6c0.4-1,0.7-2.1,1.2-3c1.2-2.5,2.3-5.1,3.6-7.6
	c1-1.9,2.3-3.6,3.4-5.3c0.6-0.9,1.3-1.7,2-2.5c0.1-0.1,0.2-0.2,0.5-0.4c0,0.3,0.1,0.5,0.1,0.7c-0.2,2.7-1.1,5.1-2.2,7.5
	c-1.1,2.4-2.5,4.7-4,6.9c-1.2,1.6-2.4,3.1-4,4.3C234.6,45.6,234.4,45.7,234.3,45.7z M255.4,41.9c1.6-1.8,3.4-3.3,5.7-4.2
	c2.2-0.8,3.2-1.3,5.5-1.4c1.1,0,2.2-0.1,3.3-0.2c0.2,0,0.5,0.1,0.7,0.3c-5.8,2-10.4,3.7-15.8,6.8c-0.1-0.1-0.1-0.1-0.2-0.2
	C254.9,42.6,255.1,42.2,255.4,41.9z M270.4,44.6c-2.3,1.7-4.9,3-7.7,3.8c-1.6,0.5-1.9,0.8-3.5,0.7c-1.1-0.1-2.3-0.2-3.4-0.3
	c-0.2,0-0.4,0-0.6-0.1c-0.1-0.1-0.3-0.2-0.3-0.3c0-0.2,0.2-0.4,0.3-0.4c1.3-0.4,2.5-0.8,3.8-1.2c2.3-0.6,3.4-1.2,5.7-1.8
	c2.2-0.6,4.4-1.4,6.6-2.1c0.4-0.1,0.8-0.3,1.2-0.4c0.1,0,0.2,0,0.3,0c0,0,0.1,0.1,0.1,0.2C271.9,43.3,271.2,44,270.4,44.6z
	 M275.9,38.4c-1.9,1.4-3.9,2.5-6,3.5c-2.8,1.3-4.5,2.3-7.6,2.9c-2.3,0.5-4.5,1-6.8,1.4c-0.3,0.1-0.5,0.1-0.8,0.1
	c-0.4,0-0.5-0.3-0.5-0.8c0.5-0.5,1-1,1.6-1.3c2.9-1.8,4.8-3.2,8-4.2c2.5-0.8,5.1-1.5,7.8-2.1c1.4-0.3,2.8-0.3,4.2-0.3
	c0.2,0,0.4,0.2,0.6,0.3C276.1,38.1,276,38.3,275.9,38.4z"/>
<g>
	<g>
		<path class="st8" d="M259.9,104.1c0.4,0.4,0.8,0.7,1.2,1.1c0.4,0.3,0.8,0.6,1.1,0.8c0.4,0.2,0.6,0.3,0.7,0.3
			c0.5,0,1.1-0.1,1.9-0.3c0.8-0.2,1.5-0.5,2.3-0.8s1.5-0.7,2.2-1.1s1.2-0.8,1.5-1.1c0.4-0.4,0.6-0.7,0.7-0.9
			c0.1-0.2,0.1-0.6,0.1-1.1c0-1.2-0.4-2.4-1.1-3.4s-1.8-2-3.2-2.8s-3.1-1.5-5.1-2.1s-4.2-0.9-6.6-1.1c-1.7-0.1-3.4-0.2-5.1-0.2
			c-2.2,0-4.2,0.1-6,0.4c-1.7,0.3-3.3,0.7-4.7,1.3c-1.4,0.6-2.7,1.3-3.7,2.2s-1.8,1.7-2.4,2.7c-0.6,1-0.9,2-0.9,3.1
			c0,1.2,0.3,2.2,0.8,3.2s1.2,1.8,2,2.6c0.8,0.8,1.7,1.5,2.8,2c1,0.6,2,1.1,2.9,1.7c0.4,0.2,0.9,0.5,1.7,0.9s1.6,0.9,2.6,1.5
			c0.9,0.6,1.9,1.2,2.9,1.9s1.8,1.4,2.6,2s1.5,1.3,2,2s0.8,1.3,0.8,1.8c0,0.6-0.2,1.1-0.5,1.5c-0.4,0.4-0.8,0.7-1.3,0.9
			c-0.5,0.2-1.1,0.3-1.6,0.4s-1.1,0.1-1.6,0.1c-1.1,0-2.2-0.1-3.3-0.4s-2.1-0.7-3-1.3l-0.6-0.3l0.5-0.5c0.2-0.3,0.4-0.7,0.6-1.1
			s0.2-0.8,0.2-1.1c0-0.5-0.2-1.1-0.5-1.7s-0.7-1.2-1.2-1.8s-1-1-1.6-1.4s-1.1-0.6-1.6-0.6c-0.6,0-1.2,0.1-2,0.3
			c-0.8,0.2-1.6,0.5-2.4,0.9c-0.8,0.4-1.5,0.8-2.2,1.2c-0.7,0.4-1.1,0.9-1.5,1.3c-0.2,0.2-0.4,0.4-0.4,0.6s0,0.4,0,0.8
			c0,1.8,0.6,3.3,1.9,4.5c1.3,1.2,2.8,2.2,4.6,2.9c1.8,0.7,3.7,1.3,5.6,1.6c1.9,0.3,3.6,0.5,4.9,0.6c4.6,0.3,8.5,0.1,11.6-0.6
			c3.1-0.7,5.6-1.9,7.5-3.7c1.7-1.6,2.6-3.4,2.6-5.4c0-1.4-0.5-2.7-1.3-3.9c-0.9-1.2-2-2.3-3.3-3.3s-2.6-1.9-4.1-2.7
			c-1.4-0.8-2.7-1.4-3.8-1.9c-0.9-0.4-1.9-0.9-2.8-1.5c-0.9-0.6-1.7-1.2-2.5-1.8c-0.8-0.6-1.4-1.3-1.9-1.9s-0.9-1.2-1.1-1.7
			c-0.1-0.4-0.2-0.7-0.2-0.9c0-0.2,0.1-0.5,0.3-0.8c0.3-0.6,0.9-1,1.8-1.3c0.9-0.3,1.8-0.5,2.9-0.5c0.9,0,2,0.2,3.3,0.5
			s2.3,0.8,3,1.3l0.5,0.3l-0.4,0.4c-0.5,0.6-0.8,1.3-0.8,2.1s0.2,1.6,0.7,2.4C259.3,103.4,259.6,103.7,259.9,104.1 M202.5,108.5
			c-0.1,0-0.2,0-0.3,0l-0.2,0.1c-0.1,0-0.1-0.3,0-1c0.2-2.5,1.1-4.6,2.5-6.3s3.2-2.7,5.4-3c1.4-0.1,2.9,0.1,4.5,0.6
			c0.2,0.1,0.3,0.2,0.3,0.2c0,0.1-0.1,0.2-0.3,0.5s-0.5,0.6-0.8,0.9s-0.7,0.7-1.1,1.2c-0.4,0.4-0.7,0.8-1.1,1.1
			c-1.5,1.6-3,2.8-4.6,3.8s-2.9,1.6-4,1.8C202.7,108.4,202.6,108.4,202.5,108.5 M205.5,113.9c0.5,0,1.1,0,1.8,0c0.6,0,1.3,0,1.9,0
			c0.6,0,1.2-0.1,1.7-0.1c1.1-0.1,2.5-0.4,4.3-0.8s3.5-0.9,5.3-1.6s3.4-1.5,4.8-2.5c1.4-1,2.3-2.1,2.7-3.3c0.4-1.6-0.1-3.6-1.5-6
			c-1.1-2.1-2.8-3.8-5-5.2c-2.2-1.4-4.7-2.4-7.6-2.9c-0.6-0.1-1.2-0.2-1.6-0.2c-0.5-0.1-1.4-0.1-2.6-0.1c-0.8,0-1.4,0-1.9,0
			s-1,0.1-1.4,0.1s-0.9,0.1-1.3,0.1s-0.9,0.2-1.5,0.3c-2,0.5-3.8,1.1-5.6,2c-1.8,0.8-3.4,1.8-4.8,3s-2.7,2.4-3.7,3.8
			c-1.1,1.4-1.8,2.9-2.4,4.4c-0.1,0.4-0.3,0.8-0.4,1.2c-0.1,0.4-0.2,0.8-0.2,1.2s-0.1,0.9-0.1,1.4s0,1.2,0,2s0.2,3.8,0.7,5.4
			c0.6,1.6,1.4,3,2.4,4.3c1.1,1.3,2.3,2.5,3.8,3.6c1.4,1.1,3.1,1.9,4.9,2.6s3.7,1.2,5.7,1.4c0.4,0.1,1,0.1,1.6,0.1c0.7,0,1.3,0,2,0
			s1.4,0,2,0c0.7,0,1.2-0.1,1.6-0.1c2.4-0.3,4.8-1,7.2-2s4.5-2.3,6.3-3.9c0.9-0.8,1.7-1.6,2.3-2.3s0.9-1.8,0.9-3
			c0-0.5-0.1-1.1-0.3-1.7s-0.4-1.2-0.8-1.8c-0.3-0.6-0.7-1-1.2-1.4s-1.1-0.6-1.7-0.6c-0.3,0-0.7,0.2-1.2,0.5c-1.8,1.3-2.8,3-3,5.1
			c0,1.2,0.4,2.2,1.2,3l0.3,0.3l-0.5,0.2c-0.9,0.3-1.9,0.6-3.2,0.8c-1.3,0.3-2.5,0.4-3.5,0.5c-0.5,0.1-1.8,0.1-2.1,0
			c-1.5-0.2-2.9-0.9-4.3-1.9c-1.4-1.1-2.5-2.4-3.4-4c-0.3-0.6-0.6-1.1-0.8-1.6s-0.3-0.7-0.3-0.8l0.4,0.1h0.4c0.2,0,0.3,0,0.5,0.1
			C204.5,113.8,205,113.9,205.5,113.9 M181.6,118.5c-0.4,0.3-0.9,0.5-1.5,0.8c-0.9,0.4-1.9,0.8-3.1,1.2c-1.2,0.4-2.4,0.7-3.5,0.9
			c-1.2,0.3-2.3,0.4-3.2,0.5c-1,0.1-1.8,0.1-2.3,0c-1.1-0.2-2.1-0.6-3.1-1.2s-1.9-1.3-2.8-2.2s-1.6-1.9-2.2-3.1
			c-0.6-1.2-1.1-2.4-1.3-3.7c-0.1-0.4-0.2-0.8-0.2-1.4s-0.1-1.1-0.1-1.7s0-1.1,0-1.6c0.1-0.5,0.1-0.9,0.1-1.2c0.5-2.2,1.5-4,2.9-5.6
			s3.4-2.3,5.7-2.3c1.2,0,2.4,0.2,3.5,0.7l0.7,0.3l-0.9,0.8c-0.3,0.3-0.5,0.5-0.7,0.8s-0.4,0.5-0.5,0.7c-0.5,0.9-0.7,1.8-0.6,2.7
			s0.6,1.9,1.5,3.2c0.1,0.2,0.4,0.6,0.7,1.1s0.6,0.9,0.9,1.4l1.1,1.7h0.9c0.6,0,1.3-0.1,2.2-0.3c0.9-0.2,1.7-0.5,2.6-0.8
			c0.9-0.3,1.7-0.7,2.5-1.1s1.4-0.8,1.8-1.2c2.1-1.9,2.1-4.7,0-8.4c-1.1-2.1-2.8-3.8-5-5.2c-2.2-1.4-4.7-2.4-7.6-3
			c-0.6-0.1-1.2-0.2-1.7-0.2s-1.4,0-2.6,0h-1.9c-0.5,0-3.6,0.4-4.2,0.6c-2,0.4-3.8,1.1-5.6,1.9c-1.8,0.9-3.4,1.9-4.8,3
			s-2.7,2.4-3.7,3.9c-1.1,1.4-1.8,2.9-2.4,4.5c-0.1,0.4-0.3,0.8-0.4,1.2c-0.1,0.4-0.2,0.8-0.2,1.2s-0.1,0.9-0.1,1.4s0,1.2,0,2
			s0,1.4,0,1.9s0.1,0.9,0.1,1.3s0.1,0.7,0.2,1c0.1,0.3,0.2,0.8,0.4,1.3c0.6,1.6,1.4,3,2.4,4.4s2.3,2.6,3.8,3.6s3.1,1.9,4.9,2.6
			s3.7,1.2,5.7,1.4c0.4,0.1,1,0.1,1.6,0.1c0.7,0,1.3,0,2,0s1.4,0,2,0c0.7,0,1.2-0.1,1.6-0.1c1.9-0.2,3.8-0.7,5.7-1.4
			c1.9-0.7,3.6-1.5,5.1-2.5c0.4-0.2,0.8-0.5,1.3-0.9s0.9-0.7,1.3-1.1c0.4-0.4,0.8-0.8,1.2-1.1c0.4-0.3,0.6-0.6,0.8-0.8
			c0.4-0.5,0.7-1.2,1-2s0.3-1.2,0.1-1.3c-0.1-0.1-0.4,0-0.8,0.3C182.6,117.9,182.1,118.2,181.6,118.5 M139.1,102.8
			c0-1.6-0.1-2.9-0.1-3.7c0-0.8-0.1-1.4-0.1-1.8s-0.1-0.6-0.1-0.8c-0.3-0.9-0.6-1.7-1-2.4s-0.9-1.2-1.6-1.7c-0.6-0.5-1.1-0.8-1.6-1
			c-0.5-0.1-1.2-0.3-2.2-0.3c-0.5-0.1-1.3-0.1-2.6-0.1s-2.5,0-3.8,0s-2.4,0-3.5,0c-1,0-1.6,0.1-1.6,0.1c0,0.1,0.1,0.2,0.1,0.2
			c0.8,0.4,1.5,1.7,2.2,3.9c0.6,2.2,1.1,4.9,1.5,8.2c0.1,0.6,0.1,1.5,0.1,2.5s0.1,2.2,0.1,3.4s0,2.3,0,3.4s-0.1,1.9-0.1,2.5
			c-0.1,0.5-0.2,1.4-0.3,2.7s-0.4,2.6-0.7,4.1s-0.7,2.7-1.1,3.8c-0.4,1.2-0.9,1.8-1.5,2.1c-0.2,0.1-0.3,0.2-0.2,0.2
			c0,0.1,0.5,0.1,1.6,0.1h4.1l5.6-0.1l1.1-0.3c1.2-0.4,2.3-0.9,3.1-1.6c0.9-0.7,1.5-1.6,2-2.6c0.2-0.4,0.3-0.7,0.4-1
			c0.1-0.3,0.1-0.8,0.2-1.7c0.1-0.8,0.1-2.1,0-3.9c0-1.7,0-4.3,0-7.5C139.2,106.7,139.2,104.4,139.1,102.8 M118,104v-7.5
			c0-2,0-3.7,0-5s-0.1-2.4-0.1-3.1c0-0.8-0.1-1.4-0.1-1.8c-0.1-0.4-0.2-0.8-0.3-1.1c-0.1-0.3-0.3-0.7-0.4-1.1
			c-0.9-2.8-2.4-4.4-4.5-4.9c-0.1,0-0.4,0-1,0s-1.3,0-2,0c-0.8,0-1.7,0-2.6,0s-1.8,0-2.7,0H102h-1.3c-0.5,0-0.7,0.1-0.7,0.2
			s0.1,0.1,0.1,0.1c0.1,0,0.3,0.2,0.6,0.7c0.3,0.5,0.5,1,0.8,1.7c0.5,1.5,1,3.5,1.4,5.9s0.7,5.3,0.9,8.5c0.1,0.7,0.1,1.7,0.1,3.1
			s0,2.8,0,4.4c0,1.5,0,3,0,4.4s-0.1,2.4-0.1,3.1c-0.1,2.2-0.3,4.3-0.6,6.2s-0.6,3.6-0.9,5.1s-0.7,2.7-1.1,3.6s-0.8,1.5-1.1,1.8
			c-0.2,0.1-0.2,0.2-0.1,0.3s0.6,0.1,1.7,0.1s2.9,0,5.3,0h3.6c0.9,0,1.6,0,2.2,0c0.5,0,0.9-0.1,1.2-0.1c0.2,0,0.4-0.1,0.4-0.1
			c0.7-0.3,1.3-1,1.9-2.1s1.1-2.5,1.4-4.2l0.3-1.5L118,104L118,104z M72.7,108.5c-0.1,0-0.2,0-0.3,0l-0.2,0.1c-0.1,0-0.1-0.3,0-1
			c0.2-2.5,1.1-4.6,2.5-6.3s3.2-2.7,5.3-3c1.4-0.1,2.9,0.1,4.5,0.6c0.2,0.1,0.3,0.2,0.3,0.2c0,0.1-0.1,0.2-0.3,0.5s-0.5,0.6-0.8,0.9
			s-0.7,0.7-1.1,1.2c-0.4,0.4-0.7,0.8-1.1,1.1c-1.5,1.6-3,2.8-4.6,3.8s-2.9,1.6-4,1.8C72.8,108.4,72.8,108.4,72.7,108.5 M75.7,113.9
			c0.5,0,1.1,0,1.8,0s1.3,0,1.9,0s1.2-0.1,1.7-0.1c1.1-0.1,2.5-0.4,4.3-0.8s3.5-0.9,5.3-1.6s3.4-1.5,4.8-2.5s2.3-2.1,2.7-3.3
			c0.4-1.6-0.1-3.6-1.5-6c-1.1-2.1-2.8-3.8-5-5.2C89.5,93,87,92,84.1,91.5c-0.6-0.1-1.2-0.2-1.7-0.2c-0.5-0.1-1.4-0.1-2.6-0.1
			c-0.8,0-1.4,0-1.9,0s-1,0.1-1.4,0.1s-0.8,0.1-1.3,0.1s-0.9,0.2-1.5,0.3c-2,0.5-3.8,1.1-5.6,2c-1.8,0.8-3.4,1.8-4.8,3
			s-2.7,2.4-3.7,3.8c-1.1,1.4-1.8,2.9-2.4,4.4c-0.1,0.4-0.3,0.8-0.3,1.2s-0.2,0.8-0.2,1.2s-0.1,0.9-0.1,1.4s0,1.2,0,2v1.8
			c0,0.5,0.5,3,0.7,3.5c0.6,1.6,1.4,3,2.4,4.3c1.1,1.3,2.3,2.5,3.8,3.6s3.1,1.9,4.9,2.6s3.7,1.2,5.7,1.4c0.4,0.1,1,0.1,1.6,0.1
			c0.7,0,1.3,0,2,0s1.4,0,2,0c0.7,0,1.2-0.1,1.6-0.1c2.4-0.3,4.8-1,7.2-2c2.4-1,4.5-2.3,6.3-3.9c0.9-0.8,1.7-1.6,2.3-2.3
			c0.6-0.8,0.8-1.8,0.8-3c0-0.5-0.1-1.1-0.3-1.7c-0.2-0.6-0.4-1.2-0.8-1.8c-0.3-0.6-0.7-1-1.2-1.4s-1.1-0.6-1.7-0.6
			c-0.3,0-0.7,0.2-1.2,0.5c-1.8,1.3-2.8,3-3,5.1c0,1.2,0.4,2.2,1.2,3l0.3,0.3l-0.5,0.2c-0.8,0.3-1.9,0.6-3.2,0.8
			c-1.3,0.3-2.4,0.4-3.5,0.5c-0.5,0.1-1.8,0.1-2.1,0c-1.5-0.2-2.9-0.9-4.3-1.9s-2.5-2.4-3.4-4c-0.3-0.6-0.6-1.1-0.8-1.6
			s-0.3-0.7-0.3-0.8l0.3,0.1h0.4c0.2,0,0.3,0,0.5,0.1C74.7,113.8,75.1,113.9,75.7,113.9 M28.8,88.4l0.5-0.4c0.3-0.2,0.7-0.4,1.2-0.5
			s1-0.1,1.6,0c1.1,0.2,2.2,0.7,3.3,1.4c1.1,0.7,2,1.5,2.5,2.3c0.1,0.1,0.2,0.4,0.3,0.8s0.2,0.8,0.3,1.3s0.2,1.1,0.3,1.7
			s0.2,1.2,0.3,1.8c0.4,3,0.6,5.8,0.5,8.7s-0.4,5.3-0.9,7.5c-0.1,0.2-0.2,0.5-0.2,0.7s-0.1,0.4-0.1,0.5c-0.1,0.3-0.2,0.8-0.4,1.3
			s-0.3,0.9-0.5,1.2c-0.5,1.1-1.4,2-2.6,2.8s-2.4,1.3-3.6,1.6c-0.7,0.2-1.2,0.3-1.4,0.2c-0.2-0.1-0.5-0.4-0.8-0.9l-0.4-0.6
			l-0.1-11.3c0-1.6,0-3.1,0-4.8s0-3.1,0-4.5v-3.8v-2.6L28.8,88.4z M10.2,127.4c-0.3,0.4-0.5,0.7-0.7,0.7c-0.1,0-0.1,0.1-0.1,0.1
			c0,0.1,0.1,0.1,0.2,0.1c0.2,0.1,0.6,0.1,1.2,0c4,0,7.9,0,11.8-0.1s7.8-0.1,11.8-0.3c0.7-0.1,1.3-0.1,1.7-0.1s0.8-0.1,1.2-0.1
			s0.7-0.1,1-0.1s0.8-0.2,1.3-0.3c1.1-0.3,2.3-0.6,3.5-1s2.3-0.8,3.4-1.4s2.1-1.2,3-2s1.7-1.7,2.3-2.7c0.4-0.7,0.8-1.5,1.1-2.4
			s0.5-1.9,0.7-3.1s0.3-2.6,0.4-4.2c0.1-1.6,0.1-3.4,0.1-5.5c0-1.8,0-3.3-0.1-4.7c-0.1-1.3-0.2-2.5-0.3-3.5s-0.3-1.9-0.6-2.7
			c-0.3-0.8-0.6-1.6-1-2.3c-0.7-1.4-1.7-2.8-3-4.1c-1.3-1.3-2.8-2.5-4.6-3.5c-1.8-1.1-3.7-2-5.8-2.8s-4.3-1.4-6.6-1.8
			c-0.7-0.1-1.4-0.3-2.1-0.3s-1.5-0.1-2.5-0.2s-2-0.1-3.2-0.1s-2.7-0.1-4.4-0.1h-2.6c-0.9,0-1.7,0-2.4,0s-1.4-0.1-2-0.1s-1,0-1.3,0
			c-1.1-0.1-1.7,0-2,0c-0.2,0.1-0.2,0.3,0.2,0.5c0.2,0.2,0.4,0.5,0.6,0.8c0.2,0.3,0.4,0.9,0.8,1.7c0.6,1.5,1,3.2,1.3,5
			s0.6,3.7,0.7,5.6s0.3,3.8,0.4,5.7c0.1,1.9,0.1,3.7,0.1,5.3c0,1.7,0,3.5-0.1,5.4s-0.2,3.8-0.4,5.8c-0.2,1.9-0.5,3.8-0.8,5.7
			s-0.8,3.6-1.4,5.1C10.7,126.4,10.4,126.9,10.2,127.4"/>
	</g>
	<g>
		<path class="st8" d="M132.8,89c0.9-0.2,1.7-0.5,2.3-1c0.7-0.5,1.2-1.1,1.6-1.9c0.4-0.8,0.6-1.6,0.6-2.5c0-1.6-0.6-3-1.8-4.2
			s-2.6-1.8-4.4-1.9c-1-0.1-2.1,0.1-3.1,0.6c-1.1,0.5-1.9,1.3-2.5,2.4s-0.8,2.2-0.6,3.2c0.2,1.4,0.8,2.5,1.7,3.4
			c0.9,0.9,2.1,1.6,3.4,1.8C131,89.2,131.9,89.2,132.8,89"/>
	</g>
	<g>
		<path class="st8" d="M82.8,87.2c0.7-0.3,1.2-0.6,1.7-1.1c0.4-0.4,0.8-1,1-1.5s0.3-1.2,0.1-1.8c-0.2-1.2-0.9-2-1.9-2.7
			c-1.1-0.6-1.7-0.9-3.2-0.7c-0.8,0.1-2.2,0.4-2.9,0.9c-0.8,0.5-1.3,1.2-1.7,2.1S73.2,88.5,74,89s4-1.5,5.2-1.6
			C79.9,87.5,82.1,87.5,82.8,87.2"/>
	</g>
</g>
<g>
	<path class="st6" d="M262.6,65.1c-0.9-0.3-1.4-1.1-1.1-2c0.3-1,1.4-1.6,2.6-1.4c0.9,0.2,1.4,1.2,1.1,2.1
		C265,64.8,263.7,65.4,262.6,65.1"/>
</g>
<g>
	<path class="st5" d="M237.4,58l-0.1,0.1c-0.2,0-0.5-0.1-0.7-0.1c-0.7,0-1.6,0.3-1.6,0.9s0.5,1.2,1.2,1.1c0.5,0,1-0.1,1.4-0.3
		c0.2-0.2,0.5-0.7,0.5-0.9C238.1,58.6,237.6,58.3,237.4,58 M237.6,55.9c2.5,0.6,2.3,1.8,2,3.4c-0.4,1.8-2.1,2.7-4,2.2
		c-1.6-0.3-3-2.2-2.7-3.4C233.3,56.4,235.6,55.3,237.6,55.9"/>
</g>
<g>
	<path class="st6" d="M237.4,57.5c0.3,0.3,0.8,0.7,0.8,1.2s-0.3,1.2-0.5,1.3c-0.4,0.3-1.1,0.5-1.5,0.5c-0.7,0-1.3-0.8-1.3-1.7
		c0-0.8,0.9-1.3,1.7-1.3C236.8,57.5,237,57.7,237.4,57.5C237.3,57.7,237.4,57.7,237.4,57.5"/>
</g>
</svg>
